<mxfile host="Electron" modified="2023-09-19T09:50:14.751Z" agent="Mozilla/5.0 (Windows NT 10.0; Win64; x64) AppleWebKit/537.36 (KHTML, like Gecko) draw.io/21.7.5 Chrome/114.0.5735.289 Electron/25.8.1 Safari/537.36" etag="GullPcFgnDRqSwnrPbNN" version="21.7.5" type="device">
  <diagram id="6a731a19-8d31-9384-78a2-239565b7b9f0" name="Page-1">
    <mxGraphModel dx="592" dy="351" grid="1" gridSize="10" guides="1" tooltips="1" connect="1" arrows="1" fold="1" page="1" pageScale="1" pageWidth="1169" pageHeight="827" background="none" math="0" shadow="0">
      <root>
        <mxCell id="0" />
        <mxCell id="1" parent="0" />
        <mxCell id="itigrpeGH0mGl-qhugcN-112" value="" style="shape=image;verticalLabelPosition=bottom;labelBackgroundColor=default;verticalAlign=top;aspect=fixed;imageAspect=0;image=data:image/png,iVBORw0KGgoAAAANSUhEUgAAAIQAAACDCAYAAABMQbMfAAAAAXNSR0IArs4c6QAAAARnQU1BAACxjwv8YQUAAAAJcEhZcwAADsMAAA7DAcdvqGQAADe/SURBVHhe7X0JlGRXed7XXVvX0nv39DLTM6PZpZE0oxVLSCBiDBgD5zghxDY4i5NzYpzYxyfxnmPjOA7eOMELMTjE2XAMWQxGgA0O2BKbEMgaSbNv3dPbTO9LdVV17Z3v+++71dU9I4hPrFJh9d/9133vvvfue3X/7/7LvffdatkgYYd2KKDWIN2hHTLaAcQObaEdQOzQFtoBxA5toR1A7NAW2gHEDm2hHUDs0BbaAcQObaEdQOzQFtoBxA5toR1A7NAW2gHEDm2hHUDs0BbaAcQObaGmGv6uVqvIF0p44ukrSKfXMdjfjt7uFLo6EuhItaGlBQiHQwiHWtFKVrpDf73UUEDoVun0Gq7fuIHFxQUCYIN5VRw7egzlSgWjY2PUWTG0d/agVK4it76OXH4Diys5LK+uo8rrk/EYwq2tdn4uW0AyEUNfdwJ9PR3o7nLAiRA0kUgI0UiYrO2wgWmHvjU1DBAVCvDMuQs4ffoM5udmsbS0iGKhiM6uLtxxx+0Y2bsXvT09bPUhPlUL/50EWyl8bfu0QhAJSOUKmRqFxRI4BWTzVcwvrmJhKcN8IB6LmsbJ5QpYWckiTiDt6pXGSZrGSSVjiLdF0Bbb5Fgs/IrXOg0BhARz7sJljE9O4emvfhkn7r4LJ07ej49+5hRS7Uns6klhoNeZBgkuTuEk4xRQpNU0iB5RIFA50hIiA4mAQ6AoNcBou1X5vI7nVAgMuyYA0BrBsUatMre4wrRM7VNCiOeXyxVqrhwWFtZ4XQtNVYeBp7MjjnYDThQJgicRZ2ocM/D8TaSGAGJq+jrBcB1/9rk/xT/+R/8AIyMj+PUPfg4du/prar1cooDWiyhQa1QpyVi41VqzVH8sGiJIwkgRJGrZsWgYbcxTfjTSwvMrpoEMOOQNmSKJlkAJtYYIFAeYELWP1zSOWuwa1UCFwNG2B046k8fSyhoy6xX6NWUDWaFYMm0zO7/K56xiaFcnTZXTOAKxNE6KJqydZkvP2Z6KEzyRuvs1PzUEEKfPnMPE5KS1xje98Q2W9573fxqxrm7b9mTVxsrrbm+jLxDG8SN7tGtHlOhRZQKMaSaUFiisUKjF/IYYwRNvE3DYihNRxAmcWLTVONy6wXML5ntsBFqjatpHtxRwAkc1HGZ5YpqugKyCeKLONQBxt0zQZnMlpLN5rK5lkV0vMY/mhmWt89mWCZyZuTQyPGewr53ASVHbtFHTRHH/iX3YPdilUpuOGgKIM2fP4/r1G+ju7sAD999vee95/6cIiB7b3k4CRGcqgjuO7glyXpxMoIE2cCx/hb4DTYMHzTo1j8yCzEmYmidCwUvDpAiaVIJCikvjtNJMhejXCGSOpTUq5bJpH5UpVAow4XCEmsux9m9FDkRAidfm1svUNPRzAs1zZXwV737na02TNBs1BBCT9B3SmQzOnT2HRx99NS6cv4DPP7OCRG+fHZfK12O0slVKqDVAUEN8s4dzle5arCO35fJNfnXHuB8ARvqGCgGlooTlAJMX06fQFTovTPBECB4Bx0wBTUCC2icaZn5I2iZvXC6VTNMIOAJdpVImUKIIESgCTFubE7p8mUwmi7n5eZwey+GNj96Lu+/41oBvNDXMqTz1/BlWUBjXGFpeuXIVy+XdiPf2I5/LYX56AoX1LNoSKew+eAw9nQofBYjdQQkiiddR7YG3gIF00/6WxEjb285yWqbuXA8cYkJ7BE4ZRTGFLxDJ3zFnlVpD1afAROZQ/oJ8CGmeRIyZBEq1kkc2myXYqB3SaUZXSxhfiuwA4uLlqzh77jyq5SL6dw1hja1lfmGR3j5bWaWF9r6VkcgEdh17mB5+p/kQtx+uq7BNPBhtfWruuP9NCnbq87R909flbi2nbtuDpnasnoJMPZKAYx8s10wLY16fKvrJLC/i+MEurK6uYnFxkU7palMDoiFB9+zcPJ2sNE3GGdx++zF0d6Xwl8+eoV8xzQqbQ3phCuOjlwmSvEUBopsEoYyATaY1puiUV8vSvn3W/oLc4AyRT+u2NrPqN91OHft7KZqpkMt0TtWJVpLGkGahYxum4xilAxlVyJpop4Ma5RXfHtQQQFjLWFrEyRN3487jx5mewGqxC8sbw5ivDGA6ncRsJo7Bw/fS9kbcRar1INnOmx+2YVTb8htMJbztqYFFqf60fYs/OznYuhXVjqgcf5K7ZAsTI7V+E8vih9trXmoIIGSTQwwLh4eHbFvU3tWH3sG92LXnEA7c9QCO3PcadPUP2DGRicZq0LETpFi7PlWF61y7wOX7baXfjOpPoODc9dtZ5W3+0WOwP/070obnTdK1nvy2TIjKkwPdzNQQQCQTCYyM7MHV0TGzoc8884xVjnPeNrmeVJGSk2ftW+W6D2MTjph5Kq+2yyTIrrGVo/PcoRq7j7r9evKZt2Dr/PLb2/78SW7bk9u2a5qYGgIIgWFtLYfjNBd/+tnP4fNfeIIVqpaygWJ+HRMXz+DSs09hdvwqK8zVmOL+Aj37Ej36CsM5J3BWsVhX1lWs1xI+39iOOKHYn520lbft8sMucucrz+0abdm2k+tIu9u4VmZA6i39dqCGAEKOYk9PFy5eumrpdzz8MO46EEFXdRLR/DiGekO441AP8kvXUCkV7RqFcVHGc9IcatlFAiNfLGG9UESOIVyuQM4XuV+yY+qBFIh8yzXg1AlHFOxuss4J/nyuB55nV87m/k1aRtn1+wFvktujDtx+oCmpMU7l0jIWFpZw8cI5pJIphKjAx8cnUMguIxlaRyqUxfrqLDSO0dLiHkkVLQoREBrujlrXtLqiIwxRozaa2cZtjXWE1BHA89WzWKgIOAQNy8oSOBkDD4HDvGKpYl3O1QoFW6fyvaDqd2/FMju24cnAwQw7Qekm1++KtpvEZqWGAOLGzAyWl5dw+NBBPPzwQ3j00UcwvRTFRDqFKwtRnB5dx5XpAnr23olQxEUZrvUyvQU7f8Btq+VRj9hYRCQUInAIGpYh0CRiMSQFHA2gaXxCapvllmiuCuUyQULArBewls9bKo2TJ3hKzBcbaOqAEySOmWm+jXHds/LD57kt9ylA1Oc1KzXGZLAyJIyDBw/UWkp71y70Du3Hrr1Hceieh3Hswe9E3/CIHRNJNatDy6ts+7ParmeeGCQGEu3Wsjc/Rbqtew4HnBiBE49EkWwTa8jdaZwwa6SHGqu8PI5MZtU0S2Y9j3RuHZlsHlluy2Q5/8aZKadt3I3NNJDc3W8mndbM1BBAxONx7FGUcXWMzuUazp8/b/mtrVL3YUs1l6Ge1DLViuUrSPVn1YJN9ZcsX4NG6hH0oLGaNrXh2e96aDiutWodq9v2FKusUbNE0FotorwyY8BJETCpeJulSWodAUlT+SR7+S56JmkYgWY1l2Mq4BRM29T6IfwN3UfTUkMAsZdgSKez1kv5x49/Gp/448cpSBePl4p5TF46i8unnsLC9ISrOJK8cmvF0ZipfrH5DhplJICw0UJQVE0Y3lfIyNEkq1Xn6WiWbKSSEGCZUtgmDBPM5nZwO6Nyfg37Brpw4eIUz19HuEqhZtM1OdpVwfnSA963SVCzCCztbQINOa6BsCiifFavL2rADK5vVmoIIDREPDTYj8vUEAdu24dHX/sYNLKdKDCqWL6KzkQV+3d3ID1zsRZlqOKMfWUG7FuchrI1B6Kt5isErTfWRh+CLThwNAUK+QY2W4os4GS5n2N0kucxtXDTMtUy+uJV3LixxLI/iwfvfzfLjSO7OGnO6nZzVJ968tv2iGQHBvfpqP7s5qSGAGJ1NY2Z2QVcuXwZC/MLWF1eRI72uSNWwaHhOMER53aBQmG1Bz6GatXq1TVwU//1bMIh23kBm9+hSS/8UymKPtRK5R+oxcpXMLVPEEn7hBjRSNgKZwtri+jt6sDotVG89pEPIt42i6H+zyHOMjIri7VyeUO7l908YPcYwbZSO8uz8vW1+ETaDI43KzUEEBOTU4wyljGwqw9ve9tb8ZbveTPOjBXx/HgRXzu/jC88NYZvnJ5Bou9gbSyjWK6wJdOBowkolDQbaZu/EJD3CSwlUmocnKbzre/Ab/OYRGtOZqBlIijh6EgPLl2ew/Fjv04A5bFRCWNk938lSKglFiawTmdyXWaJqfwFpVnv0+j5+Lx2Hz2Lu1nA9s/nL1vq9pqXGgIItY6Wlg3cdedx11JInd2MMnYfwsD+O3Hk/tfijofegKHbDtWOKxKQ/6AQ0k9nKytcZOULJE4wmqaft34H69GUaldLlmAkDJIHjDE/PHstU6UguyK6vgXFwqdxZN+zaCnH0bIR570z2NX9cQx0d2F9dWHTPEnLkOXPKMwNsRpVXoHP4BzgPM0Tmak3cQKiniLYbVpqCCBiVNm7d+/G2DW1tHVMTExQ8Jq/SAeRQg/T5rcy2qgnL1CeSPUvQLUyZAyzRUcoGDltgb9AIUUsUvE9mhWLRjIESpr3knDUu1lkSy7LySRoNGztkMHiS2sYGeq3d0IeOPnb+Jmf34VffO8APvyfU/j8E1F0J/8I/d1t2MjMETTFAFzuT3bJaxr5LJoAJPOUNMeyzVIB3DQTNZwuqX2vJqWGAGLf3hFkGZIdOHAb/ugTn8RH/uAP6f2X7ViZlTx99TyuPv91LM1ed4IiOTUfsGrScy1fu9rX2ZJNi/kEEUUmXihkAaeNLVnve2xQOApXpVHUetNrKxjpS2BhsYDBnt9CrCWPC5ePM0L5Xlwa/Xv4xGfegWdOtaA79t+wf88Ilucmg3u7+xsHKihQAMZ6Xv25DH4yERDdXnNTQwARZSseGujHtYlpHDl8EA+9+hEcGKyirTiJ4tJVhm1VOnBJLE2cZSvWvEZXgfIj9GKOKtRqM3AwTSB1/kRNSIEQtgvMzAMBo6n00iYKX9WD2Rsto793FxbmvoCjtz3BE1Ns0TIfRar4Ilt+BRPjG3Qs/wx9vWGE88vIF2gGXIE27U4GbotZEvPD31upyJ6VR/2zNSs1BBBrmYxFGVevXsHVK6NYWphHpJWtsh24+0AH7jvSid09G2zhqkV3jVq8XtIpsjXLuTSfIe98BjlyRQsZ5TPwAultqWZep11rtQJSHWhcwY6VVylkcPTAMKam53F07/upqjp4TRvaYq02eTbP+8jMrGep6qutDJHfj7vvuhsz4xd5f4awNEfqhHIdUc40Wbc3n0vOr+6px7L78c+DSNvNTA0BxLVr41heWTa7+o53vB1v/zvfi6+fTuMpRRjfGMcff+4UnnjqClrbh2tjGSKpeQsbzZlzDp3eotIgl2yznEz5Bxl1KwdCUbeyTIJ6M/Wqn0GAgvG4EMue9yc2WHY7w83fRVdyhc5lDC1V+iMRvfvBsrJZaooCfRQCrcLwtfokuttz2JVgpRFxMkft8TjaEwl0JOJmmtR7KYAqjJVJWiFYXLe2vk0ABduxraakhgBCXdOUAl71qgdrEUNHzwCjjMMYuO0Ejr3q9Tj+yJux7+idJmhRTe0Hf6po40ANS/1rwMp7/q5zqs3AIz9CJA1iw+UUjsAiR1NpNbeAIwcP4OLFp3B4+JMEQ4qPF6ZG0cBY1cCgLvYSI5oWqRuarhZqicrML+Ghhx7C0uQl0wLueRz7Z5JJ0jPJh+kgYOq/T33arNQQQGiIemBwEOMTk/YCzOLiEloIkmgsjrZ40lJFGvWkilOFq/628uaOO+5Y2xUKT9ZCBkev8AkYGrCKCzAKFSmoKEo4fmAI0zdW0B15H8IUYrXkuLUqjaT3J9bMVPEmNG0sU9EFfZvQ+l8gUnoetw33ILu2ao+hj/pn0jWe1R9i5BM71203KzUEEHtH9tokluGhQRvL+OCH/kMtyqiwomfGr+DaueeQXpq3PFFJHVM597aTvfNpYaMbXbQ3wFmxXgb128GHsQeKa8kULLm3rcwwOIUb4x/BcN8VlIohlIsss0gTIxBsuLe2dK5GR2MhPmeFgKDfIBcnc+mncMedtyOzMOmeR2XrXnpoETf0CJusY5tAqDuzKakhgFA/xEB/L2YXlnH40AE88OCD2NtXQqx4w2ZJRVBEVyqMmSvPWxgqkmmxvgb5DDG9MidTQ7+BgJCNlpMpO62xCfkMNmvK3omQ4CUAxyYg2+flhRXctncYp557AQfa34fc/Azy6oVcnOBzTCO3MI1seg7nzp3HxMQ4fYks8ZFBObuKcj6DKkERKZ5GafZPsX+oB+nVxcCHYQibdc6le56SG1gjqDbFH2zZc7nNZqSGAEKdUbNzixhllPH88y9glQ5mb0cIIz3AfYc78B139uDIHo0v8GRfW1ZxQeUZM+5QBxCBoVlTflxCzqZ6M9UxpKhEvYUCSzorRzOYu6A3rgo5jPTGcW1yFR2F9yCOHCqlFvoPvK5MZ5CKYINg6u2EvX6XTKbcbKyNCqr0PSoUtriar6Bw6b04ePAQCsvTNEl6uZgOJh1LpXqeqPwkPrOLONx32ALSJqaGAGJ0bBwrKytUwRv4wXe906KMJ56ZxRefu4HPfvkC/uhTT+HzT55BNdbLKMP5EmrV5iPoL0itZgNWwlPcMaW8Rm9va3kB61qWcKRhKCB1gyc21qh1Ypi88jgO93+V2iSEjZJ8XV6voXgxt1OxCpKpbiSSnQREBJGWKlqYD43Wa+pdhaAsXkZp7s+wb6AHmdWlzWfQQ5DkSPoIyTuVntwpwYlNSA0BhOqkWinh0UcesaFwTbrt6BpEz+6j2HXbSRx58Ltw7OE347bj99Qq0PUosmWX3KCRSIn36jVm4dht1yRCVuLxQ61N+5/ByEA3Ll6ZwF3d76PDGDX5SyMogkCJKXmD9/r7r5/Cm+65hL7YBVTSz6ItohNZJhOBAVUyn7F69b0YHh6m2blGMyW0uJt68Jom0Lay68jym5gaAggBoK9/Fyanp63y5LRpVFMRRiLVaS/5Rhky1pOf6iZha/KthY1kDR5pAox3MgUOySKofy8WNminYSrVEh1JOq5zGSQyH0BnPE3nkF9bMrSWz7Nl6/lc4q5kCx68I4a//0bgp98+if0DNCkEwgaBYGmFEUmFpqR4DS3LT2BksA9ry/M1P2U762lEtRlhzHT5zUkNAYRmTKlVdXZ04FOf/hO8733vpzBdF7U6iRauT9h4Ro6hnCdfaWGFp/QZFNv7eQ3OZ6DK50nqsXSDWRoBddPt5Og5sFQZJq7Y+TfGv4yTI0/RLe3il04g1NIGeiPcjqB1g1qryrCTfx/43yH86z/Yh1/9+DH8t688QB+CGiEAgnosq2Rwu4X5oWvvQ39fH/KL4/RZss7RpZ+hkU7vu5hGYBGKWEx7NDEYRA0BRCKhVeK6LHzcv38v7rz7bgx2FSmseeSWJui9ZxFtKWPy/DO23oLITIFS21Y70z45aImqZa0nob4GOZnWk0mw2NR8dUzxHEUG/ckQxsev477h/0FgdTqOddM/6CEzjfYwr4vbndRaHZhd1PpRrehqj9DtPIK55SixHOP9orwvfYINOowtrLYW3rs6gfDi49g3PMBIZMk5uvRd5OzqOaQZAzzUTKG+hz1ck1JDACETscCQc3T0Kr7+9W/YKi0H97TjQN8G7j+cwiMnenHyEM1HjJUmf4Ck1uQ9c6tGJTyk1IPDtTjH5oAaehiNsPVKGDEUTBOlUjFcW3wHTl38TlweuwMzM7uRXWtHpUzNAK0Ik0A00Y5YvAvvfkeSwmzBrsH9PJLGRojaJNqNMIEUirWjNZpEayROjjGfjuvch9CeSqK0PGVgrrkzAqw3E6TtPZbNSg1ZH0LrQlyfmceZF57Dj7z7n1pF/chP/S4FsIHS+hpt8Iqd19Y9goN33mcLhqyl17DvtkFT+17lqmtY12pKv+ZHWB3f4ul9VjG7UtNAbbEYOto7kGqnZqBQNd0+vMEwcn0WG7kJhApXEd2YpHnJYmlpBs+eX0Nvewb33t7OUNSZCvmgVl30SDUHU2HKRiWP2dD34Ub4ezC1UkLfniN2bz2DHq+UWceJg+24cWMSK/yeWgJhtboL3/O6B165C4YIEBMTkxgc2IV77jlpeT/+ix9De1+n9Vi6yS+06HQu1ZK0pFBmLYsjWjCkJnT3mOrssdf2mMqU6HwBxABDsIg33/6qmjbK5zRQlUd6ZRFr5Eohh0jrhq0e19metKl9e0dG0N3ViXh7QhdaR9Xa/AQyy9ewkb2CUHkKsZYbaAvRJ4lWaHZ435BUEuiztOJy/IPUPhOI7z6BWFucj+18BgHi5KF2zNxw0winCYj0Kx0Q585fwFomh+WlBbzxDd9lQvyX//bj6KXtvRUJEGvpDA5rFbogzyh4UsPIlgPyM7SkoO/adoLijQgQASbQKrxeIJEjq4Ervz7UejaDlaV5rGdW2OIL9AUi6O5Moq+rA7uHh9Df34cEtUt1I4Z8JouV+Wlk50dRzV5CtDqO9tZxrHS8Hevh23Bheg2dw4ftO+r+0fIG7j3cUQPE1PQU1jYEiAdfuYDQcsaXR8ewvLhgYxTPPvMM5soHMbB3t7Wi9OKcvQXe0beLrSthgNA1piEkfkPA5mNuf+DNw7LcbJnKCwCj8t2KtxWmzt8QOc0ioFCrBCcr/NR5pXKRwKAmImDSq0vULHxuOqitG2W0RVoY7YTQmUoQKANoS/XQB2lDpCXPO1dw4co1JKglfBhdWqOGOCwN4UzG1BQBgVc4IHQLrQ0xdX2WKjqOixev4MJEHvGuHqyu0IegNtigENZY+YfueTX6utuxuLiM/QeGrGVrOr2mx1mrU3n2KeJWtWRvWRkHXmeVWxutUfqXEbLmTigqYJ4uYREeQHJaKxvSKnJK6abqBB70/ooDi3t+0yyaY0HA6CWjAgEsE5SnD1SlOWqpMDoit4ajGLn9VUimOnQ3ZzIIiOmpazSDGUxOTVJDDOAtf+sVDAh1LL1w5hyef+E0CusZDA7tZmjHGICVqtvLFygW8vjaX15F/1G36NjqShqHqSEs/JS/oNYroehxmWoYuztWxnC/VpPtQls87s6jwPSFJLhcVssALmJhdR15JNASpY9CX6X+G0ujiCzLbQbPpPu6ezt/RdqHYBE4A60igLIC3TkEi7rAdW5bnJGJn5ORyeMEfYjpqTFkaW4mJumXYPCVDYgLFy9h+sYcTcXT+Gc/8m6r8B//Vx9CXFFGfg2Z1TWeRU2QHMShk99Brz5Be7tqgBAFisGk1lItINXipr/19/cjp6X+Ll3C2oXzqIzRAVxchN6AyCdTqND+tx87hs4DB3lhK8YmrmO1FEck2bPZcxjQ9krwQLEDdUCxP6Ya9vb+ivbrndp6wJSzAkQK05NjBGguAIQ0xKteuYDQSraTk5Po6+uprWT7z3/+v6Ozv8vmQ6jSVXmJ9i5rWfIhlpccIPzDSSYt5Sz29bbi9iMHqarXcekznwH+9LNIpldNADpLzqYNjLG1ynfQxPl0Iok8o5vd3/1mm6J36doskNrNbfcbHL4GTPaB8Gs3JtlmcJLPtl2eq9M3r3eaRUP08kUElni1BfccacfU5CijnTzGJ8aRbZGGaE5AbG0mLxGpkju7u219KY+/SLQNSQKgo7sfHT39aO/uq6lZkVpfSW870TwYlXLYTzDcdcdRXH3hBTz7Ez+JxP/4n+jIrFlr11kyKeYUUhDq79S0+xBF1pnLof+JJzHzMz+Fsa98BXcQaOHsOJ3cWZvDoBd/bE4F1b6cXs2rkFCLTDXzW3m29KAczYAlbD1jbZusR1WnmF5G9tPoBHSBpDZ7irS51XzUEEAodIuzctTn8BdPfhG/9mu/QQ/ezZgSQNQ3sDQ7bYt01Iggkg13E1DUBV3EnQTDC088gfQv/RIG52blOlIgEqAE5pYIKGqf9xEwtK08AatMwaTYWts/8gd4/td+3V7O6WldQiW3RhUf5nO02JoPGodYpq0XZ9ZzNk6iyTcCW00TMPVcT4FBcX886Jj5ztd151iG225GagggOjs7kUok7Jdyerq7MDA4hGSsgNYKK32JrZThaHpxHleff9pA40kDWGppXeEi7r79EEbPnkXhN38T7Twmc2DCVn8CzY4Bg6yWascUEViLV+oBU0Y1EkbfpQs4/95/i717htDdumzLKguBmiCrybo2m5qOYbItbi8FS4Y2k5raZJV+gGZ45+gEF3lvaYlNYW/yJgkeyqvP3HJCU1FDACGBpNnixhh6Pvnkl9Db14/XP7QPh7qzODFSxavv7MDr7utHd5I2mEIV+dalbuK9/er5A0Y/8AEkJNxA+ALDrre+Fff84UfRduiQEzrzjHXcznOgsDyBQ/nUFp3Xb+DU7/wO9o8MomXtGm8j81Tfsl1kIzJgRpwJEFhSibjtyxy4GVoMQTVDi6neG7EZWnxOG4vh9fVgqN9uRmoIIK6NT9ja1hPjo/iH/+AH8eqHHsT/fPxpfOmZC/jy08/j81/4Kv7sC09TTVehFWVEqjdVp7TI/r278cyf/Ak6JyZQpqBMqFTle971Luz70R9FZGAXbv/lX0ZkaCjQBDzOVD6BfADNoI4eP46uN7zBBtr8qnXJU6fwwsc+ikMjjFYWx3VXd9+bmB9OtLbtgaJoQkPriZh7lzNFjaL3TpUvTaV5GwLFdrLimpQaAogifYMcnb/HHnutmY+enm60xgeR2HUciaF70H3gQfTcdj8OnnjYhrRF0iqaFJMIlayF5v/wDxEKBO2FXqU52ZBDKQF1dOCOX/kVtPb2OcCQ3U8WlJF6/esR/6EfwgYBsevtf9fGNwQWyaX4+ONYu34d3bE8nV69qufevjInsQYEJ8RbMT+NDShyFrhdez8j0CLfTtQQQIhSHe32EwGe1EXd3tWLrr5B9A6OoHdoLyK0357UyjTHoSMRwgoFFlpeNkHJBEjgEufFD30I1//8z+21uxwjiTz9lKO/8l6U6eXLvivS6KYWibzlLTbRN7O2htwD96PzNa9xx+l7aAW7C//xwziwbwQb6UmbS6E+CN1Lk1zkN8gUrAeaRc6qF7xoO0DE/Kyx5VlqBwKq324uagggBgcGbOhZQvva01/Hb/32B0wDGLGiNFNK72T4yTEiVaDqUL94M3XpElo0ZY6tVqGf9w9KzHvuF96DhfPnDRQmdGqNI7/8b7BBe9//Yz8G3Hcf1gUWHrf3NXmPeZ6nKXgyJwIXLlzE4vQ0+lKt9DW0In+LrfugF3zkWMokaJki5eu+WjjEA0Wgcc6lVtt1psRAEDA/7V/3ETCCnKalhgCit7fHZjXtGhi2cYlkMolEtIiWSh6ZlXmGnDewdGMKo6e/Yc6dyCqTH9IU2akpcy49EJyWcFzMZfHcT/80stQg69IU2SxWUikM/+qvIkcgrq6s2A+X6NU8zZkc/Xf/DvM0P2WGraXFRZQyGT5HFZc+Sl/iwD6sL03XCdQeosbq/HJA0doPcXMy9eqgTIS9WERw6P0MgWVzCh0v9eS36/OajBoCCLUetaqro6P4yleewtDuPfie19yGwz1ruHO4jIfv7MTfemAQXXGpZAcI2fjVbJ4ttogQhe5NhXU8GSjoLFJjSGvkxsfx3LvfjTRBYcJXd7bMA8EhrSHNEGZ5l9/zHlRpYhIUVJXHqgRLdX4eG7MzSH/967ZIeym3SJ8k0F6kTXBsMj+NTYvxzzQKw1nnXOr9jLjN/xRQ3JmOvIZoZmoIILTGlBYMuXj+LN71zu/HvSfuxMf++El85eun8fQ3TuFLX/wqPv8XX8XC8rqtJKMOImlftciCehDjFBS9dYHAaYmg11C2fWwMuStXsPylL2H2Yx+rmQZFE2KFmxEK/+ov/ALazp2D91L0xes5RC2UYetOxVqwSjCZz0AQyWHdLsjtAPHMT2OZDoFFI7VGLtvynNZpXmoIILJSo6vLeN3rXou+vj4MMTwshwcR6TuOcP8JRHfdjVjf7dh/18OMAMrIruWsUtXnvZLOIjk8jLy0QqARrBdyZsaAUKLwKgz9+t75TkS/+7trGsGDQaBKf/zjSFGL6BUgiagGgjoOU1BLo1cx0NeNSNDiJbw8y9AipH65AQFFDqcBRQI2aTuSrLezAcEdrm1sB1gzUUMAocgrnkhStbqp86J4shNdvQPoHdiDof2HMbD3KL33EB1FFw76Ck1nS+geGUGettsAQTCsT0wgT1Wv/Sr9kYF/8S8Q/YEfMKe1phkoNIWc+v3wLkYa7cePbwGBejvEWo1CHONDlulYCgiuC109l+qQcjO69SaYvQUW9Fz6Bcb0uqBFIdRk9eGqF3r9p4tOSG63KakhgNC7C3Isl5aWcebsOfzn//Jfod/AEKnysrT5ywsLFOBmlGG9fORMsRVVevvr3d1W2fnJSdMK8jQ2Ojsx+PM/j5ZHH8U6zYKAoD4GDZJVaEpsUIm8SmH1/uzPIkZNYyCg8B23GkfpuGpfK9PqJWN7NgpNgvdsZfFa9SvoPVItWmJAsdcFYwYeHVdoai8VBRrFNwCjus1mpcYAor/PKnLPyF6bV5jPF9nyivQ2C1hdmLOBrbXFacxeu0gQuFYklayBpcV82H69b+jNb0aOoCkGYNA74sOMLiq3325gUG+kwj+9aDv7+7+PJUYZuHQRYbZwDawVyLcxwggTRBqN1Hn6QVf9JocAYcsUDw6ZzCp0Kp0gXUs3KLhdYw8SnyWSaVIZBhS9W6oIhIAReUxsAUeTUkMAoYrQb1xeYZRxjo7dwcNH8OZH92J/+xKODeRx3+EkXntvP7ra8rWwUxNNVKHJVCem5lZx4LHXIk2h66h0i2Az/8QT1gvqxyliPD723vei+vnPI0k/ovy7H0SUkUSSYWg7ObJ3L+74rd8ykEQEALV0giPG7RABuOeuO7FKn0X9E1pDSssNaLTV1sCkqfIC/aYgEW9mb6H665uVGgII/Rj8Gh3Lc6dfwNve+hYcObgf/+vxp/CXz12kCbmI5587ha9+9RnMLWZtipsR60z1p/mQ6XISy3TsBn7wXaYZZFgEigUKfuXxT9l2mJrnIs2HjyTkPEYyGRR/4zcQ53ZXV5e9Sjj4Xd+FkR/7UfMZ2gQGgYLaonX3MPoHBzE9s2Dhp9aQUivXaKsNYhFw+l2NNP0U+Q5+DQg/ruHEfDNQPGmzdm5dfrNRQwChvoH0yhIeeeTV9sb0/v37sF7tRj66H7noAWRDt2E9PIKBA/fUxjJcK+KnkmgnLl2bwYkf+iGs7NljAJCmUAUvfPSjmP2d38ElgqGdkYeurkUSbPnhuTks81iCwhUoWuinXPvc58xkCAxtTKMUeDv9EE2UWSvwmkjU3Z03F6scOZcp+grqY9Ai6/IZNI0uR60kkPjOKOveluDtwV1iW0Eo2uzUEEBIRNFoDB0d7cE+vfp4u/1UY1fvIHaNHMDg/mNoS6aCo9QCVNtS1/ILKBKsoQeXxibwpt/991hrbzdAmHGRZ//000jRtwiifgcICtkAwRAydPEirv3kT2LhmWfwhcdehz6Gq/EwIwhqCAGiSGGf/Jc/gbPnLmAj1oVwWO9xOjDexHR0bcItyxco1FPpO6Nq2oTPLG0is6NzhQjrSAtWx2lmagggurs7MTQ0aKZj7No4Pkk1X98baKOSWtjLh2UkjXBqaFkVrMoshxI4P51HPtWB13/4w0gn4m7aHHnzKkcasLLJrrzWVrdlWS1f+jLGv+/7sIeOaUpLERAMcear/yHyj/4hUjQXTz9/mTeOWyeYm/jiNISQsOUvAAc3jT1IRH5I3H6ugVpJz69rRLWxjmC/GakhgBhiZcsx0zI8ly5dgn6ALdRKUW5UbFp+evE6lm+MYW5ytBZlePWqClbsbyvJdY/g6TNTqAwM4vUMXVd7egwMOtNXsbSDlh6ShnCAoPdP1qr37WzBAkGUx+VIqv8h++CDePCnfwZPfvkplCPd6O7pMzBaiEtzoEVTxW5YPJj0IsF+K5AYu3wj7fPaZqcGmQw2PAr18pWrmJ2dxfG7TuBtj43gSF8aB3szOL4/hu+4qxfJ1rXaWIZq0FeyqlHcypYd7b4NXzo1hmpnN77/k59E+a67bL6ku4Jg4LZnW5TcmCEm9wWCKDVGm7QHC145ehQnfu/3cOr0WbxwdRHJzn5ENKrJc72G0pQ662eQtmL56s62YXGag5rPYNrk1iBxT+XIa5G6rKajhgDixswsVtcyOHv6NF798EMYHuzD/3niFK6OXsPM9QlMXbuMs2fOYGklQyE6p1IOo0I9qz1DheMQ7Xui7zC+dn4Bl6/P4h0f+Qi6fviHsdTbYxGI6trAIJbpIADsTW9pBHKYgsvRxud+4Adw8hOfwJlrE3jiG5cQax+w1WykY+puVyPzSwSoQFv5CEQaTCZNfSYCiTqjFIFoeN+iCivHFeTTZqaGAEI9lPox+Fc9eD/NxkHcfuwYFnMMJau7sVDejbn1fiwWetG37+5alCERqKJVwW4Mwc1+ViWrHyHVuxfnrlfx6T//Gu75vu/Huz7zJ9jzcz+H7MmTWGYZaxR6MRgh1QBZjulirA2rb30r9jzxBPbx3M8++RV86otnUGnrQ1t7N2Xn3th2pNS18u1cTwKfmTSCQyBRNCPQSBvI5NhPMQRUCzubmBryoo6WA5iavoGe7o7aizr/5Kf+O/qG+mx7O6USUczPL2Pfgd2qcctTxUtjSMBOc4jo/BULyK/OoKetgPtP3k6wHUErbb7e5lqanESeQuhIJtF9+DAGaSIWl5fxl6eex7Nnx5CrJm2JZc0G15tdGkn1YxFq+WKZDmmG4DEC2rJjtPX4JoWrLTh5OIGJ0YtYWpy38RYtB/C33/TIK/fNLTmRGv4+c/YsXvfYa3DxwkX8p0+OYddwvx13j6BQziksAWJubhn7DxIQL0ICiKRgGiBPVZ1JI7syz3g1jc5ECD2dSQz0dWFXfx+y2XXMzi9gfimN1VwV1XAKbYlOJDs60RZPmcDrycomCRx+wEqkfA8SpTpNj+5OvxkRyg8JEIcSmBy7gMWFOeinmlar/fjbb3wEJ45v/k5ps1BDAKEW/exzp9HWFmWUcRljo6O4MNuD/qEBhpsFRhkzKK5nEWljSx7ch/ZkzABhGsJTUN83V/sm6atopFIAUZd2oUh7zihGkYZWurNFSfSuRVsCUfoB3l+5VeHb7yMwqHyZAn0fr0kkdQMJ2WkSd2WQ0HltxT0BIObn9HPWBQPE977h1aYhNs/ffseXhxoCCN3i4uWr9o5nqKXC0G4XVXca84vLWFvLsZI1btGK8xenkBo+gU627unrCxja22+VXGuR+quvuGDzRasyOFfvemjoWSGj/3klOZshepuKQFTmzfK4ufDtp+g6DxJzgslKVaFek7S1RnAPTYYAMTdL4NOvECDeGrzbqTK2Amlr2mhqiFM5R3W9tLSC8+fOYP++/UgmYjj1/Hkszs+inF9FITOHG1NjWMusWx+CSJVpk1sZagoIrudSyw6um7Nmb2FJlTv5bjKvFRsFmQ5UYVtZVhGCRj81x9PmQhIsKldLCnrH1f2Kj8yEL9RxbdMd4bY+WYkUnp7Xh6liOZYinePO55/XKvyXptBEHhulDVjzN8T6XgasoPxGUmMAMTcP/Rj83Xcdx8mTJ+hY3ofR2Rim1rowttyOyzfCmFiIoXP4DptCVyO1ErIEWuucIkgkWOkLdXYJIOo4UiQhf+ImkLAYz0b+AEmCtEkwKlcgYblq2SpHfQxbQVInoKAMX5SxsgMWqYWrLCOeUNHC7CZod4bNEM9kjPX7HH6mVz04ZJoaDYyGAEKVo0XL9+zZtJnxRAc9/EF079qD4YPHsefoPWjv7rVjIrUoJ1xWRsC+tYn0xrc6iwQQa5Hc1lH1Adj0+IJ7pU79Ab5Ca0Vp23IC8gdIej4bowhCyFpfA8vRa3oZRgmbg1hBP4koKMMXZeyO1Ki+p1IgWF1drc0IF3uA2DsmATi8xmgUKBoCiGQygRGCQcsK6YuK9Kq+Kl+RhUu32kxbDkCVoYrgMVWHVcmWGncA8Syn0fcHaKq8tIoq01q7RiMFkrJ7QVcX2HVK/Ta5Rr58soFEGorlJm1GtRzSVgOFyq0HiYHYl6brgz1R/ViNhZ8Eg0BRzwKGB4mfEuhB0QhqCCBGRvZYT+Xx48fxxS99xX5Zx8tfUcbi9Wu4cfUsVuZvmABEen9DgtALNSZMMwvuZR1PVtmB4Dxrv5ZPUpe5NIh1GhEk+gUdAS0rlW2ahILkvm+9taK0HXCNfPlkmRvzGTQcHoDEnpdayYHEdW375xDVb6thSEv4n3PyQPBaQyxtIVMiTeHNx0tNDYkyRPpSz556nluaOQ1cunoDS6tSkxoiZlgYacWVsVn07rsbnR1JzMwsYWT/EJ/QXS8Ayf5axxQrRo8t7aL5jZoHKQF50pa+1GZOQHXniNQadJ7KNP/DWrB8Fuck+gjkJgqybnHEEa/RdXIiIy1h3HskgfEr53B9atLupyWFdndHMDKkiceb4apSfRexAVlLKLS3I5VK2ctNWpdLx15KaoiGEOm3O9V1feDAARSJ+vnZG4hhHbs6gL5kCRvFpWARkc1qNqTqgyxZKdqQ6pZdV6vXetKqSLV4RQpqkS4CcX6DxBtcHpSlgjbZH1cl6xeCzR+hJlFkowNq7bXRTtlzgYYHdLmO14oKyqkRM/2orcjOt3TzLG2r1csc2BRAdbXzHtIc0gpee3izoeM6/6Vuvw0DhEjC0wzsxx57DU5dqeDMdAjPjpbx9JkVnLm6jkTvvtqyQvrixvbHfc/Bhk8130EhnkCiOZg+3JM919tiAolMjXn4Vl5QjliF1LG/Jx/UQCJHVcATC4g6JqHJfFlkUyJINCFX5mZrUbV71JOVHZC/l8yAdXQF4KgHiM0iF8AbBAZRQwHhSZWg9zI6e4fQM7APu4+cxN7bH0BX/2BwBs/hl7dWz9BPIaWGxV2r2yZUcv2OtIiiAr1fIYC4dylCJjQBwwbKAgfQQKLr3aVBWfysY58vMDuQOO0kn0Gv/KtcaQ/5Iw4kAl89SHwJfvvW5I8prd9WXfm8+mMvFb0sgNCX6unWGAJtPytV6fZlAmVPfSeSwkuNRLq3qCRQvfNZYmW5sE9VtIW3ZRhINJmWJkZT5NsIEvkeanUqS/0N3tRYp1Td5VbYNrZ8UQASaSfntAZzLRnFyFkVSEyAtQtqGy9KHnjyIerZ+xkvNb0sgNAXe9t3HkeUgtGXvyWp4lV/ZK1RrVZvvgMrXh1Jus7euKYw9XaW65iiD8KLVG3BpTXenqFnqHV2ESSKGHSd5nBamUFrl99g1/N8f7k9WB37fLHOM4eQ5Qokuo/lk75Z69Z5Yg8GOZD6MTix/K9GgeJlA8SrTu7DyQNdGOmPm93XTKUIW7CWFKp3K2t/rEurz4BVhtl4Vpi0iLalpX3L9FpEZub/BSAigc5rEbFMgsyK65Dyi4bQJOhBeP/apf7h6lj5xvogOdWvrSAjIA8ECVtClzYUCOIKZ7VsAiMNgcMD4qWmhoWdnnQ7sXekzIGiIzW/kMb50QXML+cxR15YyWJ4xP1ehjp0/HVbScYgoG0NR5Vs4STLllC1L4HbQBnNxU0XkG7Kqcvwm/79UpkFFmlCkpnYrun8+dHWiIWdoxdfwPTkhDnNudYhDHWGsGcwUQOErhcYJHyBQUDwrH1pCZ3zUoOi4YAQeeFK2GIBY3u6ml7H5MwK5lcKuLHEVl+o2iq0/loPkpvJiaImy2BDlS5gGBCZ6lrladha3eraDs4MUkdb9wKqlen6RgQOizZUJv9ssXaBhGULEPfdAhDDXWEDhATsweA1Qz0QBBBvMjx4Xkp6WQAh8rdV6tlpg02geHCIc7kCZhcz1Bx5jM9kkF5nfBCOWIvVAKm7TmVu/zquAmvVGGwoUYRRuwdTkdci6pxylV+7skY35dSVqbsbSAgQldnRliQgkhi7tBUQvmNKgpbAt4PB+w867jXDSw0G0csGiHryj1Cfet4OEg8QLSqyQi2ysJzF1alVLGdpfja0ZMAGK1D2nX/BtTfTi5safy8zC0z90LZavYbL3flbL7pJTHUZ0dYoAREnIE5vAcRIbwz793TUnMftYPB+g8DQCM3gqSkAsZ38I9Wn9ezBUQ8SDYVnqEVW0nlcHl/GLDVJkQAplKtmEliKnevL3KTNiq5t1dW9ztY11mnE+4h8d7m0ybfSItHQrQFxYDCFg/u6DQgeDEo9GKz8BoNB1JSA2E7+EbenXsDienAolQDzhRLWMgVcGFvA7BIjhZL6MjYQjtJjZx2rH8Ndb8XVkRNATQy3kIfA4Udj7WUgr0UIkvoLYgTEvQTEtW2AOLa3B0cP9te0ggeDfAkfUTQaDKJvC0BsJ//It0o9SDxAPEi8Fsnli7g4toiZhRyW1zeQpbOqcLeVZqaquRP6C8rbpG8BEArNfscriGhENjhGgMQjcXMqr13eBEQouQcP33MAfb0dNTBIK3gweCA0Ggyib0tAbKf6r6Btv6+0HiBKvQZRqla+vl7A6OQyrs9nMZcu01nVL+7Jq1ePozTIi5uZLeKq25EgdQ+Vn4zFcT+dSg8IreJ7370n0d3dvcVfEBga6Ty+GP2NAMSLkf9qSuu5HiQeHD5Vx9O1qRVqkCz9kKI5qy1S4XJU6bAaQFyhVvZW2gYUbniTMX75DNZWV2zEV6DwmkERhsAgILzcYBD9jQbEdvJfVel2rgdJPUBkZmYW1jC/lMP1xXXMrRRQ0SoUbM063+KZoIybqQVtYQeIuckrOHRg7xbNUA+Gl8tEbKdXFCC2k//q9am4HhyePUg0t3J5lf4Ho5nxmTWamhxKBEi1xQGEsq1dL2oLx3D3/lYMdEVt4fdmcR5fjF7RgNhOvirqU89eyPUAcVxFJpvHWraAiZk0OYNcqZUhL3UHiymtLOHvffdhgqHdfIVmcR5fjHYA8U3IV019Ws8eHNtBUmC4m8uXsE7ubI8hmXAawQOhGZzHF6MdQPwVyFdVfVrPAoVPxSIJXcL3IHg5Opv+KrQDiP8P8lV3q7S+Wj0A6rlZaQcQf430raqymYHgaQcQO7SFXtrZFjv0bUc7gNihLbQDiB3aQjuA2KEttAOIHdpCO4DYoS20A4gd2kI7gNihLbQDiB3aQjuA2KE6Av4vv70YuIDm6LQAAAAASUVORK5CYII=;" parent="1" vertex="1">
          <mxGeometry x="760" y="120" width="81.62" height="81" as="geometry" />
        </mxCell>
        <mxCell id="11" value="yes" style="text;fontStyle=0;html=1;strokeColor=none;gradientColor=none;fillColor=none;strokeWidth=2;align=center;" parent="1" vertex="1">
          <mxGeometry x="639" y="240" width="40" height="26" as="geometry" />
        </mxCell>
        <mxCell id="14" value="no" style="text;fontStyle=0;html=1;strokeColor=none;gradientColor=none;fillColor=none;strokeWidth=2;align=center;" parent="1" vertex="1">
          <mxGeometry x="543" y="313" width="40" height="30" as="geometry" />
        </mxCell>
        <mxCell id="itigrpeGH0mGl-qhugcN-57" style="edgeStyle=orthogonalEdgeStyle;rounded=0;orthogonalLoop=1;jettySize=auto;html=1;exitX=0.5;exitY=1;exitDx=0;exitDy=0;exitPerimeter=0;entryX=0.5;entryY=0;entryDx=0;entryDy=0;entryPerimeter=0;" parent="1" source="itigrpeGH0mGl-qhugcN-55" target="itigrpeGH0mGl-qhugcN-56" edge="1">
          <mxGeometry relative="1" as="geometry" />
        </mxCell>
        <mxCell id="itigrpeGH0mGl-qhugcN-55" value="1: Select Event" style="shape=mxgraph.flowchart.terminator;strokeWidth=1;gradientColor=none;gradientDirection=north;fontStyle=0;html=1;" parent="1" vertex="1">
          <mxGeometry x="480" y="140" width="120" height="30" as="geometry" />
        </mxCell>
        <mxCell id="itigrpeGH0mGl-qhugcN-62" value="" style="edgeStyle=orthogonalEdgeStyle;rounded=0;orthogonalLoop=1;jettySize=auto;html=1;entryX=0.095;entryY=0.5;entryDx=0;entryDy=0;entryPerimeter=0;" parent="1" source="itigrpeGH0mGl-qhugcN-56" target="itigrpeGH0mGl-qhugcN-61" edge="1">
          <mxGeometry relative="1" as="geometry" />
        </mxCell>
        <mxCell id="itigrpeGH0mGl-qhugcN-64" value="" style="edgeStyle=orthogonalEdgeStyle;rounded=0;orthogonalLoop=1;jettySize=auto;html=1;" parent="1" source="itigrpeGH0mGl-qhugcN-56" target="itigrpeGH0mGl-qhugcN-63" edge="1">
          <mxGeometry relative="1" as="geometry" />
        </mxCell>
        <mxCell id="itigrpeGH0mGl-qhugcN-56" value="2: MTA file&lt;br&gt;exists for the display&lt;br&gt;language?" style="shape=mxgraph.flowchart.decision;strokeWidth=1;gradientColor=none;gradientDirection=north;fontStyle=0;html=1;" parent="1" vertex="1">
          <mxGeometry x="465" y="220" width="150" height="90" as="geometry" />
        </mxCell>
        <mxCell id="itigrpeGH0mGl-qhugcN-61" value="Get event&lt;br&gt;from MTA file" style="shape=mxgraph.flowchart.data;strokeWidth=1;gradientColor=none;gradientDirection=north;fontStyle=0;html=1;" parent="1" vertex="1">
          <mxGeometry x="700" y="225" width="120" height="80" as="geometry" />
        </mxCell>
        <mxCell id="itigrpeGH0mGl-qhugcN-70" value="" style="edgeStyle=orthogonalEdgeStyle;rounded=0;orthogonalLoop=1;jettySize=auto;html=1;entryX=0.095;entryY=0.5;entryDx=0;entryDy=0;entryPerimeter=0;" parent="1" source="itigrpeGH0mGl-qhugcN-63" target="itigrpeGH0mGl-qhugcN-67" edge="1">
          <mxGeometry relative="1" as="geometry" />
        </mxCell>
        <mxCell id="itigrpeGH0mGl-qhugcN-73" value="" style="edgeStyle=orthogonalEdgeStyle;rounded=0;orthogonalLoop=1;jettySize=auto;html=1;" parent="1" source="itigrpeGH0mGl-qhugcN-63" target="itigrpeGH0mGl-qhugcN-71" edge="1">
          <mxGeometry relative="1" as="geometry" />
        </mxCell>
        <mxCell id="itigrpeGH0mGl-qhugcN-63" value="3: Msg &lt;br&gt;catalogue &lt;br&gt;in the &lt;br&gt;Registry?" style="shape=mxgraph.flowchart.decision;strokeWidth=1;gradientColor=none;gradientDirection=north;fontStyle=0;html=1;" parent="1" vertex="1">
          <mxGeometry x="465" y="350" width="150" height="90" as="geometry" />
        </mxCell>
        <mxCell id="itigrpeGH0mGl-qhugcN-65" value="no" style="text;fontStyle=0;html=1;strokeColor=none;gradientColor=none;fillColor=none;strokeWidth=2;align=center;" parent="1" vertex="1">
          <mxGeometry x="639" y="370" width="40" height="26" as="geometry" />
        </mxCell>
        <mxCell id="itigrpeGH0mGl-qhugcN-98" style="edgeStyle=orthogonalEdgeStyle;rounded=0;orthogonalLoop=1;jettySize=auto;html=1;exitX=0.905;exitY=0.5;exitDx=0;exitDy=0;exitPerimeter=0;endArrow=none;endFill=0;strokeWidth=1;" parent="1" edge="1">
          <mxGeometry relative="1" as="geometry">
            <mxPoint x="839" y="395" as="targetPoint" />
            <mxPoint x="807.5999999999999" y="395" as="sourcePoint" />
          </mxGeometry>
        </mxCell>
        <mxCell id="itigrpeGH0mGl-qhugcN-67" value="Error - event&amp;nbsp;&lt;br&gt;not found" style="shape=mxgraph.flowchart.data;strokeWidth=1;gradientColor=none;gradientDirection=north;fontStyle=0;html=1;" parent="1" vertex="1">
          <mxGeometry x="700" y="355" width="120" height="80" as="geometry" />
        </mxCell>
        <mxCell id="itigrpeGH0mGl-qhugcN-76" value="" style="edgeStyle=orthogonalEdgeStyle;rounded=0;orthogonalLoop=1;jettySize=auto;html=1;entryX=0.095;entryY=0.5;entryDx=0;entryDy=0;entryPerimeter=0;" parent="1" source="itigrpeGH0mGl-qhugcN-71" target="itigrpeGH0mGl-qhugcN-75" edge="1">
          <mxGeometry relative="1" as="geometry">
            <Array as="points" />
          </mxGeometry>
        </mxCell>
        <mxCell id="itigrpeGH0mGl-qhugcN-79" value="" style="edgeStyle=orthogonalEdgeStyle;rounded=0;orthogonalLoop=1;jettySize=auto;html=1;" parent="1" source="itigrpeGH0mGl-qhugcN-71" target="itigrpeGH0mGl-qhugcN-77" edge="1">
          <mxGeometry relative="1" as="geometry" />
        </mxCell>
        <mxCell id="itigrpeGH0mGl-qhugcN-71" value="4: Msg &lt;br&gt;table for Language&lt;br&gt;Neutral (0) in the &lt;br&gt;catalogue?" style="shape=mxgraph.flowchart.decision;strokeWidth=1;gradientColor=none;gradientDirection=north;fontStyle=0;html=1;" parent="1" vertex="1">
          <mxGeometry x="465" y="480" width="150" height="90" as="geometry" />
        </mxCell>
        <mxCell id="itigrpeGH0mGl-qhugcN-72" value="yes" style="text;fontStyle=0;html=1;strokeColor=none;gradientColor=none;fillColor=none;strokeWidth=2;align=center;" parent="1" vertex="1">
          <mxGeometry x="543" y="443" width="40" height="30" as="geometry" />
        </mxCell>
        <mxCell id="itigrpeGH0mGl-qhugcN-74" value="yes" style="text;fontStyle=0;html=1;strokeColor=none;gradientColor=none;fillColor=none;strokeWidth=2;align=center;" parent="1" vertex="1">
          <mxGeometry x="639" y="501" width="40" height="26" as="geometry" />
        </mxCell>
        <mxCell id="itigrpeGH0mGl-qhugcN-99" style="edgeStyle=orthogonalEdgeStyle;rounded=0;orthogonalLoop=1;jettySize=auto;html=1;exitX=0.905;exitY=0.5;exitDx=0;exitDy=0;exitPerimeter=0;endArrow=none;endFill=0;" parent="1" edge="1">
          <mxGeometry relative="1" as="geometry">
            <mxPoint x="839" y="529" as="targetPoint" />
            <mxPoint x="807.5999999999999" y="525" as="sourcePoint" />
          </mxGeometry>
        </mxCell>
        <mxCell id="itigrpeGH0mGl-qhugcN-75" value="Use events&amp;nbsp;&lt;br&gt;from Language&lt;br&gt;Neutral (0)&amp;nbsp;&lt;br&gt;table" style="shape=mxgraph.flowchart.data;strokeWidth=1;gradientColor=none;gradientDirection=north;fontStyle=0;html=1;" parent="1" vertex="1">
          <mxGeometry x="700" y="485" width="120" height="80" as="geometry" />
        </mxCell>
        <mxCell id="itigrpeGH0mGl-qhugcN-81" value="" style="edgeStyle=orthogonalEdgeStyle;rounded=0;orthogonalLoop=1;jettySize=auto;html=1;entryX=0.095;entryY=0.5;entryDx=0;entryDy=0;entryPerimeter=0;" parent="1" source="itigrpeGH0mGl-qhugcN-77" target="itigrpeGH0mGl-qhugcN-80" edge="1">
          <mxGeometry relative="1" as="geometry" />
        </mxCell>
        <mxCell id="itigrpeGH0mGl-qhugcN-86" value="" style="edgeStyle=orthogonalEdgeStyle;rounded=0;orthogonalLoop=1;jettySize=auto;html=1;" parent="1" source="itigrpeGH0mGl-qhugcN-77" target="itigrpeGH0mGl-qhugcN-83" edge="1">
          <mxGeometry relative="1" as="geometry" />
        </mxCell>
        <mxCell id="itigrpeGH0mGl-qhugcN-77" value="5: Msg table &lt;br&gt;for&amp;nbsp;display language in &lt;br&gt;the catalogue?" style="shape=mxgraph.flowchart.decision;strokeWidth=1;gradientColor=none;gradientDirection=north;fontStyle=0;html=1;" parent="1" vertex="1">
          <mxGeometry x="465" y="610" width="150" height="90" as="geometry" />
        </mxCell>
        <mxCell id="itigrpeGH0mGl-qhugcN-78" value="no" style="text;fontStyle=0;html=1;strokeColor=none;gradientColor=none;fillColor=none;strokeWidth=2;align=center;" parent="1" vertex="1">
          <mxGeometry x="543" y="575" width="40" height="30" as="geometry" />
        </mxCell>
        <mxCell id="itigrpeGH0mGl-qhugcN-100" style="edgeStyle=orthogonalEdgeStyle;rounded=0;orthogonalLoop=1;jettySize=auto;html=1;exitX=0.905;exitY=0.5;exitDx=0;exitDy=0;exitPerimeter=0;endArrow=none;endFill=0;" parent="1" edge="1">
          <mxGeometry relative="1" as="geometry">
            <mxPoint x="839" y="670" as="targetPoint" />
            <mxPoint x="807.5999999999999" y="655" as="sourcePoint" />
          </mxGeometry>
        </mxCell>
        <mxCell id="itigrpeGH0mGl-qhugcN-80" value="Use events&lt;br&gt;from display&lt;br&gt;language table" style="shape=mxgraph.flowchart.data;strokeWidth=1;gradientColor=none;gradientDirection=north;fontStyle=0;html=1;" parent="1" vertex="1">
          <mxGeometry x="700" y="615" width="120" height="80" as="geometry" />
        </mxCell>
        <mxCell id="itigrpeGH0mGl-qhugcN-82" value="yes" style="text;fontStyle=0;html=1;strokeColor=none;gradientColor=none;fillColor=none;strokeWidth=2;align=center;" parent="1" vertex="1">
          <mxGeometry x="639" y="631" width="40" height="26" as="geometry" />
        </mxCell>
        <mxCell id="itigrpeGH0mGl-qhugcN-85" value="" style="edgeStyle=orthogonalEdgeStyle;rounded=0;orthogonalLoop=1;jettySize=auto;html=1;entryX=0.095;entryY=0.5;entryDx=0;entryDy=0;entryPerimeter=0;" parent="1" source="itigrpeGH0mGl-qhugcN-83" target="itigrpeGH0mGl-qhugcN-84" edge="1">
          <mxGeometry relative="1" as="geometry" />
        </mxCell>
        <mxCell id="itigrpeGH0mGl-qhugcN-107" value="" style="edgeStyle=orthogonalEdgeStyle;rounded=0;orthogonalLoop=1;jettySize=auto;html=1;" parent="1" source="itigrpeGH0mGl-qhugcN-83" edge="1">
          <mxGeometry relative="1" as="geometry">
            <mxPoint x="540" y="870" as="targetPoint" />
          </mxGeometry>
        </mxCell>
        <mxCell id="itigrpeGH0mGl-qhugcN-83" value="6: Msg table &lt;br&gt;for&amp;nbsp;En-US in the&lt;br&gt;catalogue?" style="shape=mxgraph.flowchart.decision;strokeWidth=1;gradientColor=none;gradientDirection=north;fontStyle=0;html=1;" parent="1" vertex="1">
          <mxGeometry x="465" y="740" width="150" height="90" as="geometry" />
        </mxCell>
        <mxCell id="itigrpeGH0mGl-qhugcN-101" style="edgeStyle=orthogonalEdgeStyle;rounded=0;orthogonalLoop=1;jettySize=auto;html=1;exitX=0.905;exitY=0.5;exitDx=0;exitDy=0;exitPerimeter=0;endArrow=none;endFill=0;" parent="1" edge="1">
          <mxGeometry relative="1" as="geometry">
            <mxPoint x="839" y="790" as="targetPoint" />
            <mxPoint x="807.5999999999999" y="785" as="sourcePoint" />
          </mxGeometry>
        </mxCell>
        <mxCell id="itigrpeGH0mGl-qhugcN-84" value="Use events&lt;br&gt;from En-US&lt;br&gt;&amp;nbsp;(1033) table" style="shape=mxgraph.flowchart.data;strokeWidth=1;gradientColor=none;gradientDirection=north;fontStyle=0;html=1;" parent="1" vertex="1">
          <mxGeometry x="700" y="745" width="120" height="80" as="geometry" />
        </mxCell>
        <mxCell id="itigrpeGH0mGl-qhugcN-87" value="no" style="text;fontStyle=0;html=1;strokeColor=none;gradientColor=none;fillColor=none;strokeWidth=2;align=center;" parent="1" vertex="1">
          <mxGeometry x="543" y="708" width="40" height="30" as="geometry" />
        </mxCell>
        <mxCell id="itigrpeGH0mGl-qhugcN-88" value="yes" style="text;fontStyle=0;html=1;strokeColor=none;gradientColor=none;fillColor=none;strokeWidth=2;align=center;" parent="1" vertex="1">
          <mxGeometry x="639" y="761" width="40" height="26" as="geometry" />
        </mxCell>
        <mxCell id="itigrpeGH0mGl-qhugcN-90" value="no" style="text;fontStyle=0;html=1;strokeColor=none;gradientColor=none;fillColor=none;strokeWidth=2;align=center;" parent="1" vertex="1">
          <mxGeometry x="543" y="834" width="40" height="30" as="geometry" />
        </mxCell>
        <mxCell id="itigrpeGH0mGl-qhugcN-92" value="8: Display Event or Error" style="shape=mxgraph.flowchart.terminator;strokeWidth=1;gradientColor=none;gradientDirection=north;fontStyle=0;html=1;" parent="1" vertex="1">
          <mxGeometry x="469" y="1000" width="144" height="30" as="geometry" />
        </mxCell>
        <mxCell id="itigrpeGH0mGl-qhugcN-110" value="" style="edgeStyle=orthogonalEdgeStyle;rounded=0;orthogonalLoop=1;jettySize=auto;html=1;exitX=0.507;exitY=0.85;exitDx=0;exitDy=0;exitPerimeter=0;" parent="1" source="itigrpeGH0mGl-qhugcN-109" target="itigrpeGH0mGl-qhugcN-92" edge="1">
          <mxGeometry relative="1" as="geometry" />
        </mxCell>
        <mxCell id="itigrpeGH0mGl-qhugcN-109" value="7: Use lowest&lt;br style=&quot;border-color: var(--border-color);&quot;&gt;&lt;span style=&quot;&quot;&gt;numbered msg&lt;/span&gt;&lt;br style=&quot;border-color: var(--border-color);&quot;&gt;&lt;span style=&quot;&quot;&gt;table in catalogue&lt;br&gt;&lt;/span&gt;" style="shape=document;whiteSpace=wrap;html=1;boundedLbl=1;" parent="1" vertex="1">
          <mxGeometry x="480" y="870" width="120" height="80" as="geometry" />
        </mxCell>
        <mxCell id="itigrpeGH0mGl-qhugcN-111" value="" style="edgeStyle=elbowEdgeStyle;elbow=horizontal;fontStyle=1;strokeColor=#003366;strokeWidth=1;html=1;endArrow=none;endFill=0;jumpSize=1;entryX=0.905;entryY=0.5;entryDx=0;entryDy=0;entryPerimeter=0;exitX=1;exitY=0.5;exitDx=0;exitDy=0;exitPerimeter=0;startArrow=classic;startFill=1;" parent="1" source="itigrpeGH0mGl-qhugcN-92" target="itigrpeGH0mGl-qhugcN-61" edge="1">
          <mxGeometry width="100" height="100" as="geometry">
            <mxPoint x="750" y="1016" as="sourcePoint" />
            <mxPoint x="780" y="272" as="targetPoint" />
            <Array as="points">
              <mxPoint x="839" y="952" />
            </Array>
          </mxGeometry>
        </mxCell>
        <mxCell id="CtOdokgPMIjGqeffRpa5-15" value="MGK&#39;s Event Viewer Language Selection" style="text;html=1;strokeColor=none;fillColor=none;align=center;verticalAlign=middle;whiteSpace=wrap;rounded=0;fontStyle=3" parent="1" vertex="1">
          <mxGeometry x="590" y="960" width="240" height="30" as="geometry" />
        </mxCell>
      </root>
    </mxGraphModel>
  </diagram>
</mxfile>
